<svg width="86" height="90" viewBox="0 0 86 90" fill="none" xmlns="http://www.w3.org/2000/svg">
<g clip-path="url(#clip0_1875_815)">
<path d="M39.597 49.3369C41.097 49.3369 42.5677 48.915 43.8391 48.1357L57.5794 39.6748C59.9056 38.2334 61.3002 35.7432 61.3002 33.0127C61.3002 30.2706 59.9057 27.7803 57.5794 26.3389L43.8391 17.8663C41.3313 16.3371 38.1966 16.2609 35.6359 17.6847C33.0696 19.1085 31.4817 21.8273 31.4817 24.7511V41.2211C31.4817 44.1624 33.0696 46.8636 35.6242 48.2993C36.8254 48.9731 38.1906 49.3364 39.5676 49.3364L39.597 49.3369ZM37.4994 24.7684C37.4994 24.0008 37.9213 23.2977 38.5775 22.9402C38.8939 22.7586 39.2513 22.6707 39.597 22.6707C39.9896 22.6707 40.3646 22.7762 40.7045 22.9871L54.4448 31.4597C55.0014 31.8054 55.312 32.3738 55.312 33.0183C55.312 33.6629 54.9955 34.2312 54.4448 34.577L40.6869 43.0379C40.0541 43.4305 39.2162 43.4422 38.5541 43.0848C37.892 42.7098 37.4759 42.0066 37.4759 41.2566V24.7866L37.4994 24.7684Z" fill="black"/>
<path d="M85.5 12C85.5 5.3847 80.1153 0 73.5 0H15C8.3847 0 3 5.3847 3 12V27C3 28.6524 4.34766 30 6 30C7.65234 30 9 28.6523 9 27V12C9 8.68365 11.6836 6 15 6H73.5C76.8164 6 79.5 8.68365 79.5 12V54C79.5 57.3164 76.8164 60 73.5 60H58.5C56.8476 60 55.5 61.3477 55.5 63C55.5 64.6523 56.8477 66 58.5 66H73.5C80.1153 66 85.5 60.6153 85.5 54V12Z" fill="black"/>
<path d="M85.5 87C85.5 85.3476 84.1523 84 82.5 84H61.5C59.8476 84 58.5 85.3477 58.5 87C58.5 88.6523 59.8477 90 61.5 90H82.5C84.1524 90 85.5 88.6523 85.5 87Z" fill="black"/>
<path d="M12.5 83C12.5 84.377 13.6231 85.5 15 85.5C16.3769 85.5 17.5 84.3769 17.5 83C17.5 74.7236 10.7764 68 2.5 68C1.123 68 0 69.1231 0 70.5C0 71.8769 1.12305 73 2.5 73C8.01275 73 12.5 77.4872 12.5 83Z" fill="black"/>
<path d="M2.5 48C1.123 48 0 49.1231 0 50.5C0 51.8769 1.12305 53 2.5 53C19.0375 53 32.5 66.4625 32.5 83C32.5 84.377 33.6231 85.5 35 85.5C36.3769 85.5 37.5 84.3769 37.5 83C37.5 63.6988 21.8012 48 2.5 48Z" fill="black"/>
</g>
<defs>
<clipPath id="clip0_1875_815">
<rect width="85.5" height="90" fill="white"/>
</clipPath>
</defs>
</svg>
